# xmcd
#
# Track frame offsets:
#	182
#	16060
#	32050
#	45622
#	57992
#	72930
#	87707
#	101860
#	119582
#	135587
#	150092
#	171327
#	186982
#	203617
#	221627
#	232807
#	247597
#
# Disc length: 3588 seconds
#
# Revision: 16
# Processed by: cddbd v1.5.2PL0 Copyright (c) Steve Scherf et al.
# Submitted via: audiograbber 1.83.01
#
DISCID=e30e0211
DTITLE=Verschiedene Künstler - Echt Kultig - Kult 2 - Folge 2
DYEAR=1997
DGENRE=Schlager
TTITLE0=Henry Valentino and Uschi - Im Wagen vor mir
TTITLE1=Katja Ebstein - Wunder gibt es immer wieder
TTITLE2=Jürgen Marcus - Ein Lied zieht hinaus in die Welt
TTITLE3=Peggy March - Mit 17 hat man noch Träume
TTITLE4=Juliane Werding - Wenn du denkst, du denkst, dann denkst du nur, du den
TTITLE4=kst
TTITLE5=Gitte Haenning - Von Hollywood träumen
TTITLE6=Bata Illic - Michaela
TTITLE7=Paola - Blue Bayou
TTITLE8=Costa Cordalis - Du hast ja Tränen in den Augen
TTITLE9=Michael Holm - Ein verrückter Tag
TTITLE10=Christian Anders - Es fährt ein Zug nach Nirgendwo
TTITLE11=Howard Carpendale - Da nahm er seine Gitarre
TTITLE12=Hoffmann and Hoffmann - Himbeereis zum Frühstück
TTITLE13=Roy Black - Sand in deinen Augen
TTITLE14=Siw Malmkvist - Liebeskummer lohnt sich nicht
TTITLE15=Peter Orloff - Du
TTITLE16=Johnny Hill - Ruf Teddybär eins-vier
EXTD=YEAR: 1997
EXTT0=
EXTT1=
EXTT2=
EXTT3=
EXTT4=
EXTT5=
EXTT6=
EXTT7=
EXTT8=
EXTT9=
EXTT10=
EXTT11=
EXTT12=
EXTT13=
EXTT14=
EXTT15=
EXTT16=
PLAYORDER=
